<mxfile host="app.diagrams.net" modified="2021-09-05T09:25:40.773Z" agent="5.0 (Windows NT 10.0; WOW64) AppleWebKit/537.36 (KHTML, like Gecko) Chrome/92.0.4515.107 Safari/537.36" etag="97U6E4MmTofpnCqNT48O" version="14.9.8" type="github" pages="5">
  <diagram id="JPlxt37TA1Rc8D6ogrF-" name="Page-1">
    <mxGraphModel dx="1342" dy="614" grid="1" gridSize="10" guides="1" tooltips="1" connect="1" arrows="1" fold="1" page="1" pageScale="1" pageWidth="850" pageHeight="1100" math="0" shadow="0">
      <root>
        <mxCell id="0" />
        <mxCell id="1" parent="0" />
        <mxCell id="s5A9EhZmzQyqcUOflIqa-28" style="edgeStyle=orthogonalEdgeStyle;rounded=0;orthogonalLoop=1;jettySize=auto;html=1;" parent="1" source="_Z44ksLgXYaoCjjZ6wLq-4" target="s5A9EhZmzQyqcUOflIqa-27" edge="1">
          <mxGeometry relative="1" as="geometry" />
        </mxCell>
        <mxCell id="_Z44ksLgXYaoCjjZ6wLq-4" value="Azure Web app&lt;br&gt;(OCR/MRZ)" style="rounded=0;whiteSpace=wrap;html=1;" parent="1" vertex="1">
          <mxGeometry x="560" y="180" width="90" height="40" as="geometry" />
        </mxCell>
        <mxCell id="s5A9EhZmzQyqcUOflIqa-29" style="edgeStyle=orthogonalEdgeStyle;rounded=0;orthogonalLoop=1;jettySize=auto;html=1;entryX=0.5;entryY=1;entryDx=0;entryDy=0;" parent="1" source="_Z44ksLgXYaoCjjZ6wLq-5" target="s5A9EhZmzQyqcUOflIqa-27" edge="1">
          <mxGeometry relative="1" as="geometry" />
        </mxCell>
        <mxCell id="_Z44ksLgXYaoCjjZ6wLq-5" value="Azure Web app&lt;br&gt;(FaceMatch)" style="rounded=0;whiteSpace=wrap;html=1;" parent="1" vertex="1">
          <mxGeometry x="560" y="320" width="90" height="40" as="geometry" />
        </mxCell>
        <mxCell id="s5A9EhZmzQyqcUOflIqa-18" style="edgeStyle=orthogonalEdgeStyle;rounded=0;orthogonalLoop=1;jettySize=auto;html=1;entryX=0.058;entryY=0.362;entryDx=0;entryDy=0;entryPerimeter=0;" parent="1" source="s5A9EhZmzQyqcUOflIqa-1" target="s5A9EhZmzQyqcUOflIqa-5" edge="1">
          <mxGeometry relative="1" as="geometry" />
        </mxCell>
        <mxCell id="s5A9EhZmzQyqcUOflIqa-1" value="" style="image;html=1;image=img/lib/clip_art/telecommunication/iPhone_128x128.png" parent="1" vertex="1">
          <mxGeometry x="40" y="200" width="80" height="80" as="geometry" />
        </mxCell>
        <mxCell id="s5A9EhZmzQyqcUOflIqa-16" style="edgeStyle=orthogonalEdgeStyle;rounded=0;orthogonalLoop=1;jettySize=auto;html=1;" parent="1" source="s5A9EhZmzQyqcUOflIqa-3" target="s5A9EhZmzQyqcUOflIqa-5" edge="1">
          <mxGeometry relative="1" as="geometry" />
        </mxCell>
        <mxCell id="s5A9EhZmzQyqcUOflIqa-3" value="" style="aspect=fixed;pointerEvents=1;shadow=0;dashed=0;html=1;strokeColor=none;labelPosition=center;verticalLabelPosition=bottom;verticalAlign=top;align=center;shape=mxgraph.mscae.enterprise.website_generic;fillColor=#7D7D7D;" parent="1" vertex="1">
          <mxGeometry x="40" y="400" width="90" height="79.2" as="geometry" />
        </mxCell>
        <mxCell id="s5A9EhZmzQyqcUOflIqa-22" style="edgeStyle=orthogonalEdgeStyle;rounded=0;orthogonalLoop=1;jettySize=auto;html=1;entryX=0;entryY=0.5;entryDx=0;entryDy=0;" parent="1" source="s5A9EhZmzQyqcUOflIqa-5" target="s5A9EhZmzQyqcUOflIqa-9" edge="1">
          <mxGeometry relative="1" as="geometry" />
        </mxCell>
        <mxCell id="s5A9EhZmzQyqcUOflIqa-5" value="F5 Firewall&amp;nbsp;" style="rounded=0;whiteSpace=wrap;html=1;" parent="1" vertex="1">
          <mxGeometry x="190" y="200" width="80" height="280" as="geometry" />
        </mxCell>
        <mxCell id="s5A9EhZmzQyqcUOflIqa-24" style="edgeStyle=orthogonalEdgeStyle;rounded=0;orthogonalLoop=1;jettySize=auto;html=1;" parent="1" source="s5A9EhZmzQyqcUOflIqa-7" target="_Z44ksLgXYaoCjjZ6wLq-5" edge="1">
          <mxGeometry relative="1" as="geometry" />
        </mxCell>
        <mxCell id="s5A9EhZmzQyqcUOflIqa-7" value="" style="outlineConnect=0;fontColor=#232F3E;gradientColor=none;fillColor=#232F3E;strokeColor=none;dashed=0;verticalLabelPosition=bottom;verticalAlign=top;align=center;html=1;fontSize=12;fontStyle=0;aspect=fixed;pointerEvents=1;shape=mxgraph.aws4.generic_firewall;" parent="1" vertex="1">
          <mxGeometry x="192" y="207" width="78" height="66" as="geometry" />
        </mxCell>
        <mxCell id="s5A9EhZmzQyqcUOflIqa-9" value="&lt;br&gt;&lt;br&gt;&lt;br&gt;&lt;br&gt;WSO2 API Gateway" style="rounded=1;whiteSpace=wrap;html=1;" parent="1" vertex="1">
          <mxGeometry x="320" y="340" width="60" height="140" as="geometry" />
        </mxCell>
        <mxCell id="s5A9EhZmzQyqcUOflIqa-23" style="edgeStyle=orthogonalEdgeStyle;rounded=0;orthogonalLoop=1;jettySize=auto;html=1;exitX=1.015;exitY=0.61;exitDx=0;exitDy=0;exitPerimeter=0;" parent="1" source="s5A9EhZmzQyqcUOflIqa-9" target="s5A9EhZmzQyqcUOflIqa-10" edge="1">
          <mxGeometry relative="1" as="geometry" />
        </mxCell>
        <mxCell id="s5A9EhZmzQyqcUOflIqa-8" value="" style="points=[[0,0,0],[0.25,0,0],[0.5,0,0],[0.75,0,0],[1,0,0],[0,1,0],[0.25,1,0],[0.5,1,0],[0.75,1,0],[1,1,0],[0,0.25,0],[0,0.5,0],[0,0.75,0],[1,0.25,0],[1,0.5,0],[1,0.75,0]];outlineConnect=0;fontColor=#232F3E;gradientColor=#945DF2;gradientDirection=north;fillColor=#5A30B5;strokeColor=#ffffff;dashed=0;verticalLabelPosition=bottom;verticalAlign=top;align=center;html=1;fontSize=12;fontStyle=0;aspect=fixed;shape=mxgraph.aws4.resourceIcon;resIcon=mxgraph.aws4.api_gateway;" parent="1" vertex="1">
          <mxGeometry x="324.5" y="349" width="51" height="51" as="geometry" />
        </mxCell>
        <mxCell id="s5A9EhZmzQyqcUOflIqa-13" style="edgeStyle=orthogonalEdgeStyle;rounded=0;orthogonalLoop=1;jettySize=auto;html=1;entryX=0;entryY=0.5;entryDx=0;entryDy=0;" parent="1" source="s5A9EhZmzQyqcUOflIqa-10" target="_Z44ksLgXYaoCjjZ6wLq-4" edge="1">
          <mxGeometry relative="1" as="geometry" />
        </mxCell>
        <mxCell id="s5A9EhZmzQyqcUOflIqa-14" style="edgeStyle=orthogonalEdgeStyle;rounded=0;orthogonalLoop=1;jettySize=auto;html=1;entryX=0.5;entryY=1;entryDx=0;entryDy=0;" parent="1" source="s5A9EhZmzQyqcUOflIqa-10" target="_Z44ksLgXYaoCjjZ6wLq-5" edge="1">
          <mxGeometry relative="1" as="geometry" />
        </mxCell>
        <mxCell id="s5A9EhZmzQyqcUOflIqa-10" value="API-Experience&lt;br&gt;Services" style="rounded=1;whiteSpace=wrap;html=1;" parent="1" vertex="1">
          <mxGeometry x="425" y="380" width="65" height="89.2" as="geometry" />
        </mxCell>
        <mxCell id="s5A9EhZmzQyqcUOflIqa-25" value="" style="aspect=fixed;html=1;points=[];align=center;image;fontSize=12;image=img/lib/azure2/compute/App_Services.svg;" parent="1" vertex="1">
          <mxGeometry x="640" y="316" width="24" height="24" as="geometry" />
        </mxCell>
        <mxCell id="s5A9EhZmzQyqcUOflIqa-26" value="" style="aspect=fixed;html=1;points=[];align=center;image;fontSize=12;image=img/lib/azure2/compute/App_Services.svg;" parent="1" vertex="1">
          <mxGeometry x="640" y="176" width="24" height="24" as="geometry" />
        </mxCell>
        <mxCell id="s5A9EhZmzQyqcUOflIqa-27" value="" style="aspect=fixed;perimeter=ellipsePerimeter;html=1;align=center;shadow=0;dashed=0;spacingTop=3;image;image=img/lib/active_directory/internet_cloud.svg;" parent="1" vertex="1">
          <mxGeometry x="770" y="260" width="50" height="31.5" as="geometry" />
        </mxCell>
        <mxCell id="s5A9EhZmzQyqcUOflIqa-30" value="&lt;font style=&quot;font-size: 10px&quot;&gt;&lt;b&gt;Outbound call for license server&lt;/b&gt;&lt;/font&gt;" style="text;html=1;align=center;verticalAlign=middle;resizable=0;points=[];autosize=1;strokeColor=none;" parent="1" vertex="1">
          <mxGeometry x="680" y="349" width="170" height="20" as="geometry" />
        </mxCell>
        <mxCell id="s5A9EhZmzQyqcUOflIqa-31" value="&lt;font style=&quot;font-size: 10px&quot;&gt;&lt;b&gt;Outbound call for license server&lt;/b&gt;&lt;/font&gt;" style="text;html=1;align=center;verticalAlign=middle;resizable=0;points=[];autosize=1;strokeColor=none;" parent="1" vertex="1">
          <mxGeometry x="680" y="176" width="170" height="20" as="geometry" />
        </mxCell>
        <mxCell id="s5A9EhZmzQyqcUOflIqa-33" value="https" style="text;html=1;align=center;verticalAlign=middle;resizable=0;points=[];autosize=1;strokeColor=none;" parent="1" vertex="1">
          <mxGeometry x="570" y="370" width="40" height="20" as="geometry" />
        </mxCell>
        <mxCell id="s5A9EhZmzQyqcUOflIqa-36" value="https" style="text;html=1;align=center;verticalAlign=middle;resizable=0;points=[];autosize=1;strokeColor=none;" parent="1" vertex="1">
          <mxGeometry x="560" y="291.5" width="40" height="20" as="geometry" />
        </mxCell>
        <mxCell id="s5A9EhZmzQyqcUOflIqa-37" value="https" style="text;html=1;align=center;verticalAlign=middle;resizable=0;points=[];autosize=1;strokeColor=none;" parent="1" vertex="1">
          <mxGeometry x="520" y="178" width="40" height="20" as="geometry" />
        </mxCell>
        <mxCell id="s5A9EhZmzQyqcUOflIqa-38" value="&lt;b&gt;Regula SDK implementation Architecture&amp;nbsp;&lt;/b&gt;" style="text;html=1;align=center;verticalAlign=middle;resizable=0;points=[];autosize=1;strokeColor=none;" parent="1" vertex="1">
          <mxGeometry x="300" y="130" width="250" height="20" as="geometry" />
        </mxCell>
      </root>
    </mxGraphModel>
  </diagram>
  <diagram id="x1Lwoa89d2Tt3v2YKTWo" name="Page-2">
    <mxGraphModel dx="1102" dy="614" grid="1" gridSize="10" guides="1" tooltips="1" connect="1" arrows="1" fold="1" page="1" pageScale="1" pageWidth="850" pageHeight="1100" math="0" shadow="0">
      <root>
        <mxCell id="BH-TQbuxKJdrfqgRteqp-0" />
        <mxCell id="BH-TQbuxKJdrfqgRteqp-1" parent="BH-TQbuxKJdrfqgRteqp-0" />
        <mxCell id="BH-TQbuxKJdrfqgRteqp-15" style="edgeStyle=none;rounded=0;orthogonalLoop=1;jettySize=auto;html=1;entryX=0.394;entryY=-0.022;entryDx=0;entryDy=0;entryPerimeter=0;" parent="BH-TQbuxKJdrfqgRteqp-1" source="BH-TQbuxKJdrfqgRteqp-2" target="BH-TQbuxKJdrfqgRteqp-3" edge="1">
          <mxGeometry relative="1" as="geometry" />
        </mxCell>
        <mxCell id="BH-TQbuxKJdrfqgRteqp-16" style="edgeStyle=none;rounded=0;orthogonalLoop=1;jettySize=auto;html=1;entryX=0.5;entryY=0;entryDx=0;entryDy=0;" parent="BH-TQbuxKJdrfqgRteqp-1" source="BH-TQbuxKJdrfqgRteqp-2" target="BH-TQbuxKJdrfqgRteqp-5" edge="1">
          <mxGeometry relative="1" as="geometry" />
        </mxCell>
        <mxCell id="BH-TQbuxKJdrfqgRteqp-17" style="edgeStyle=none;rounded=0;orthogonalLoop=1;jettySize=auto;html=1;entryX=0.5;entryY=0;entryDx=0;entryDy=0;" parent="BH-TQbuxKJdrfqgRteqp-1" source="BH-TQbuxKJdrfqgRteqp-2" target="BH-TQbuxKJdrfqgRteqp-4" edge="1">
          <mxGeometry relative="1" as="geometry" />
        </mxCell>
        <mxCell id="BH-TQbuxKJdrfqgRteqp-2" value="WSO2- API Gateway&amp;nbsp;" style="rounded=1;whiteSpace=wrap;html=1;" parent="BH-TQbuxKJdrfqgRteqp-1" vertex="1">
          <mxGeometry x="80" y="150" width="560" height="60" as="geometry" />
        </mxCell>
        <mxCell id="BH-TQbuxKJdrfqgRteqp-18" style="edgeStyle=none;rounded=0;orthogonalLoop=1;jettySize=auto;html=1;entryX=0;entryY=0.5;entryDx=0;entryDy=0;" parent="BH-TQbuxKJdrfqgRteqp-1" source="BH-TQbuxKJdrfqgRteqp-3" target="BH-TQbuxKJdrfqgRteqp-6" edge="1">
          <mxGeometry relative="1" as="geometry" />
        </mxCell>
        <mxCell id="BH-TQbuxKJdrfqgRteqp-23" style="edgeStyle=none;rounded=0;orthogonalLoop=1;jettySize=auto;html=1;entryX=0.118;entryY=-0.05;entryDx=0;entryDy=0;entryPerimeter=0;" parent="BH-TQbuxKJdrfqgRteqp-1" source="BH-TQbuxKJdrfqgRteqp-3" target="BH-TQbuxKJdrfqgRteqp-21" edge="1">
          <mxGeometry relative="1" as="geometry" />
        </mxCell>
        <mxCell id="BH-TQbuxKJdrfqgRteqp-3" value="COB" style="rounded=1;whiteSpace=wrap;html=1;" parent="BH-TQbuxKJdrfqgRteqp-1" vertex="1">
          <mxGeometry x="80" y="280" width="120" height="60" as="geometry" />
        </mxCell>
        <mxCell id="BH-TQbuxKJdrfqgRteqp-19" style="edgeStyle=none;rounded=0;orthogonalLoop=1;jettySize=auto;html=1;entryX=1;entryY=0.5;entryDx=0;entryDy=0;" parent="BH-TQbuxKJdrfqgRteqp-1" source="BH-TQbuxKJdrfqgRteqp-4" target="BH-TQbuxKJdrfqgRteqp-6" edge="1">
          <mxGeometry relative="1" as="geometry" />
        </mxCell>
        <mxCell id="BH-TQbuxKJdrfqgRteqp-22" style="edgeStyle=none;rounded=0;orthogonalLoop=1;jettySize=auto;html=1;entryX=0.897;entryY=0.016;entryDx=0;entryDy=0;entryPerimeter=0;" parent="BH-TQbuxKJdrfqgRteqp-1" source="BH-TQbuxKJdrfqgRteqp-4" target="BH-TQbuxKJdrfqgRteqp-21" edge="1">
          <mxGeometry relative="1" as="geometry" />
        </mxCell>
        <mxCell id="BH-TQbuxKJdrfqgRteqp-4" value="API-Experience" style="rounded=1;whiteSpace=wrap;html=1;" parent="BH-TQbuxKJdrfqgRteqp-1" vertex="1">
          <mxGeometry x="530" y="280" width="120" height="60" as="geometry" />
        </mxCell>
        <mxCell id="BH-TQbuxKJdrfqgRteqp-24" style="edgeStyle=none;rounded=0;orthogonalLoop=1;jettySize=auto;html=1;entryX=0.385;entryY=-0.001;entryDx=0;entryDy=0;entryPerimeter=0;" parent="BH-TQbuxKJdrfqgRteqp-1" source="BH-TQbuxKJdrfqgRteqp-5" target="BH-TQbuxKJdrfqgRteqp-6" edge="1">
          <mxGeometry relative="1" as="geometry" />
        </mxCell>
        <mxCell id="BH-TQbuxKJdrfqgRteqp-5" value="Mobility" style="rounded=1;whiteSpace=wrap;html=1;" parent="BH-TQbuxKJdrfqgRteqp-1" vertex="1">
          <mxGeometry x="300" y="280" width="120" height="60" as="geometry" />
        </mxCell>
        <mxCell id="BH-TQbuxKJdrfqgRteqp-6" value="&lt;b&gt;&lt;u&gt;Common services:&lt;/u&gt;&lt;/b&gt;&lt;br&gt;&lt;ol&gt;&lt;li&gt;Cybersource services&lt;/li&gt;&lt;li&gt;Template services&lt;/li&gt;&lt;li&gt;OTP Services&lt;/li&gt;&lt;li&gt;.&lt;/li&gt;&lt;li&gt;.&lt;/li&gt;&lt;/ol&gt;" style="rounded=1;whiteSpace=wrap;html=1;align=left;" parent="BH-TQbuxKJdrfqgRteqp-1" vertex="1">
          <mxGeometry x="290" y="380" width="180" height="120" as="geometry" />
        </mxCell>
        <mxCell id="BH-TQbuxKJdrfqgRteqp-13" style="edgeStyle=none;rounded=0;orthogonalLoop=1;jettySize=auto;html=1;entryX=0.288;entryY=0.022;entryDx=0;entryDy=0;entryPerimeter=0;" parent="BH-TQbuxKJdrfqgRteqp-1" source="BH-TQbuxKJdrfqgRteqp-7" target="BH-TQbuxKJdrfqgRteqp-2" edge="1">
          <mxGeometry relative="1" as="geometry" />
        </mxCell>
        <mxCell id="BH-TQbuxKJdrfqgRteqp-7" value="" style="outlineConnect=0;dashed=0;verticalLabelPosition=bottom;verticalAlign=top;align=center;html=1;shape=mxgraph.aws3.mobile_client;fillColor=#D2D3D3;gradientColor=none;" parent="BH-TQbuxKJdrfqgRteqp-1" vertex="1">
          <mxGeometry x="220" y="10" width="40.5" height="63" as="geometry" />
        </mxCell>
        <mxCell id="BH-TQbuxKJdrfqgRteqp-14" style="edgeStyle=none;rounded=0;orthogonalLoop=1;jettySize=auto;html=1;entryX=0.732;entryY=0.056;entryDx=0;entryDy=0;entryPerimeter=0;" parent="BH-TQbuxKJdrfqgRteqp-1" source="BH-TQbuxKJdrfqgRteqp-9" target="BH-TQbuxKJdrfqgRteqp-2" edge="1">
          <mxGeometry relative="1" as="geometry" />
        </mxCell>
        <mxCell id="BH-TQbuxKJdrfqgRteqp-9" value="" style="shape=image;html=1;verticalAlign=top;verticalLabelPosition=bottom;labelBackgroundColor=#ffffff;imageAspect=0;aspect=fixed;image=https://cdn0.iconfinder.com/data/icons/eon-social-media-contact-info-2/32/world_www_web_website-128.png;fontStyle=1" parent="BH-TQbuxKJdrfqgRteqp-1" vertex="1">
          <mxGeometry x="470" y="21.5" width="40" height="40" as="geometry" />
        </mxCell>
        <mxCell id="BH-TQbuxKJdrfqgRteqp-21" value="MW Services" style="rounded=1;whiteSpace=wrap;html=1;" parent="BH-TQbuxKJdrfqgRteqp-1" vertex="1">
          <mxGeometry x="70" y="540" width="580" height="60" as="geometry" />
        </mxCell>
      </root>
    </mxGraphModel>
  </diagram>
  <diagram id="a06Cr4dBa5ZKBT9T9Hlc" name="Page-3">
    <mxGraphModel dx="1342" dy="614" grid="1" gridSize="10" guides="1" tooltips="1" connect="1" arrows="1" fold="1" page="1" pageScale="1" pageWidth="850" pageHeight="1100" math="0" shadow="0">
      <root>
        <mxCell id="ExzQFQyrDmCpy_E2fdTn-0" />
        <mxCell id="ExzQFQyrDmCpy_E2fdTn-1" parent="ExzQFQyrDmCpy_E2fdTn-0" />
        <mxCell id="ExzQFQyrDmCpy_E2fdTn-19" style="edgeStyle=orthogonalEdgeStyle;rounded=0;orthogonalLoop=1;jettySize=auto;html=1;entryX=0.5;entryY=0;entryDx=0;entryDy=0;" parent="ExzQFQyrDmCpy_E2fdTn-1" source="ExzQFQyrDmCpy_E2fdTn-2" target="ExzQFQyrDmCpy_E2fdTn-17" edge="1">
          <mxGeometry relative="1" as="geometry" />
        </mxCell>
        <mxCell id="ExzQFQyrDmCpy_E2fdTn-2" value="WSO2 API Gateway" style="rounded=1;whiteSpace=wrap;html=1;" parent="ExzQFQyrDmCpy_E2fdTn-1" vertex="1">
          <mxGeometry x="157.5" y="310" width="430" height="30" as="geometry" />
        </mxCell>
        <mxCell id="ExzQFQyrDmCpy_E2fdTn-29" style="edgeStyle=orthogonalEdgeStyle;rounded=0;orthogonalLoop=1;jettySize=auto;html=1;" parent="ExzQFQyrDmCpy_E2fdTn-1" source="ExzQFQyrDmCpy_E2fdTn-3" target="ExzQFQyrDmCpy_E2fdTn-2" edge="1">
          <mxGeometry relative="1" as="geometry" />
        </mxCell>
        <mxCell id="ExzQFQyrDmCpy_E2fdTn-3" value="Mobile client" style="outlineConnect=0;fontColor=#232F3E;gradientColor=none;strokeColor=#232F3E;fillColor=#ffffff;dashed=0;verticalLabelPosition=bottom;verticalAlign=top;align=center;html=1;fontSize=12;fontStyle=0;aspect=fixed;shape=mxgraph.aws4.resourceIcon;resIcon=mxgraph.aws4.mobile_client;" parent="ExzQFQyrDmCpy_E2fdTn-1" vertex="1">
          <mxGeometry x="120" y="180" width="60" height="60" as="geometry" />
        </mxCell>
        <mxCell id="ExzQFQyrDmCpy_E2fdTn-13" style="edgeStyle=orthogonalEdgeStyle;rounded=0;orthogonalLoop=1;jettySize=auto;html=1;exitX=0.5;exitY=1;exitDx=0;exitDy=0;exitPerimeter=0;entryX=0.5;entryY=0;entryDx=0;entryDy=0;" parent="ExzQFQyrDmCpy_E2fdTn-1" source="ExzQFQyrDmCpy_E2fdTn-4" target="ExzQFQyrDmCpy_E2fdTn-8" edge="1">
          <mxGeometry relative="1" as="geometry" />
        </mxCell>
        <mxCell id="ExzQFQyrDmCpy_E2fdTn-4" value="" style="verticalLabelPosition=bottom;html=1;verticalAlign=top;align=center;strokeColor=none;fillColor=#00BEF2;shape=mxgraph.azure.azure_website;pointerEvents=1;" parent="ExzQFQyrDmCpy_E2fdTn-1" vertex="1">
          <mxGeometry x="535" y="140" width="50" height="50" as="geometry" />
        </mxCell>
        <mxCell id="ExzQFQyrDmCpy_E2fdTn-5" value="&lt;span style=&quot;font-weight: bold&quot;&gt;COBJBA-01&lt;/span&gt;" style="rounded=1;whiteSpace=wrap;html=1;" parent="ExzQFQyrDmCpy_E2fdTn-1" vertex="1">
          <mxGeometry x="90" y="530" width="120" height="60" as="geometry" />
        </mxCell>
        <mxCell id="ExzQFQyrDmCpy_E2fdTn-6" value="&lt;span style=&quot;font-weight: 700&quot;&gt;COBJBA-02&lt;/span&gt;" style="rounded=1;whiteSpace=wrap;html=1;" parent="ExzQFQyrDmCpy_E2fdTn-1" vertex="1">
          <mxGeometry x="295" y="520" width="120" height="60" as="geometry" />
        </mxCell>
        <mxCell id="ExzQFQyrDmCpy_E2fdTn-7" value="&lt;span style=&quot;font-weight: 700&quot;&gt;COBJBA-03&lt;/span&gt;" style="rounded=1;whiteSpace=wrap;html=1;" parent="ExzQFQyrDmCpy_E2fdTn-1" vertex="1">
          <mxGeometry x="540" y="515" width="120" height="60" as="geometry" />
        </mxCell>
        <mxCell id="ExzQFQyrDmCpy_E2fdTn-32" style="edgeStyle=orthogonalEdgeStyle;rounded=0;orthogonalLoop=1;jettySize=auto;html=1;entryX=0.541;entryY=0.11;entryDx=0;entryDy=0;entryPerimeter=0;" parent="ExzQFQyrDmCpy_E2fdTn-1" source="ExzQFQyrDmCpy_E2fdTn-8" target="ExzQFQyrDmCpy_E2fdTn-2" edge="1">
          <mxGeometry relative="1" as="geometry" />
        </mxCell>
        <mxCell id="ExzQFQyrDmCpy_E2fdTn-8" value="&lt;span style=&quot;font-weight: 700&quot;&gt;172.16.232.20/21&lt;/span&gt;" style="rounded=1;whiteSpace=wrap;html=1;" parent="ExzQFQyrDmCpy_E2fdTn-1" vertex="1">
          <mxGeometry x="500" y="220" width="120" height="40" as="geometry" />
        </mxCell>
        <mxCell id="ExzQFQyrDmCpy_E2fdTn-10" value="&lt;table class=&quot;MsoNormalTable&quot; border=&quot;0&quot; cellspacing=&quot;0&quot; cellpadding=&quot;0&quot; width=&quot;0&quot; style=&quot;width: 6.25in ; margin-left: -0.15pt ; border-collapse: collapse&quot;&gt;&#xa; &lt;tbody&gt;&lt;tr style=&quot;height: 15.0pt&quot;&gt;&#xa;  &lt;td width=&quot;127&quot; nowrap=&quot;&quot; valign=&quot;bottom&quot; style=&quot;width: 95.0pt ; border: solid 1.0pt ; padding: 0in 5.4pt 0in 5.4pt ; height: 15.0pt&quot;&gt;&#xa;  &lt;p class=&quot;MsoNormal&quot;&gt;&lt;b&gt;&lt;span lang=&quot;EN-GB&quot; style=&quot;color: black&quot;&gt;URL Hostname&lt;/span&gt;&lt;/b&gt;&lt;b&gt;&lt;span style=&quot;font-family: &amp;quot;calibri&amp;quot; , sans-serif ; color: black&quot;&gt;&lt;/span&gt;&lt;/b&gt;&lt;/p&gt;&#xa;  &lt;/td&gt;&#xa;  &lt;td width=&quot;127&quot; nowrap=&quot;&quot; valign=&quot;bottom&quot; style=&quot;width: 95.0pt ; border: solid 1.0pt ; border-left: none ; padding: 0in 5.4pt 0in 5.4pt ; height: 15.0pt&quot;&gt;&#xa;  &lt;p class=&quot;MsoNormal&quot;&gt;&lt;b&gt;&lt;span lang=&quot;EN-GB&quot; style=&quot;color: black&quot;&gt;IP&lt;/span&gt;&lt;/b&gt;&lt;/p&gt;&#xa;  &lt;/td&gt;&#xa;  &lt;td width=&quot;172&quot; nowrap=&quot;&quot; valign=&quot;bottom&quot; style=&quot;width: 129.0pt ; border: solid 1.0pt ; border-left: none ; padding: 0in 5.4pt 0in 5.4pt ; height: 15.0pt&quot;&gt;&#xa;  &lt;p class=&quot;MsoNormal&quot;&gt;&lt;b&gt;&lt;span lang=&quot;EN-GB&quot; style=&quot;color: black&quot;&gt;Path Mappings in F5&lt;/span&gt;&lt;/b&gt;&lt;/p&gt;&#xa;  &lt;/td&gt;&#xa;  &lt;td width=&quot;175&quot; nowrap=&quot;&quot; valign=&quot;bottom&quot; style=&quot;width: 131.0pt ; border: solid 1.0pt ; border-left: none ; padding: 0in 5.4pt 0in 5.4pt ; height: 15.0pt&quot;&gt;&#xa;  &lt;p class=&quot;MsoNormal&quot;&gt;&lt;b&gt;&lt;span lang=&quot;EN-GB&quot; style=&quot;color: black&quot;&gt;Forwarded to Server&lt;/span&gt;&lt;/b&gt;&lt;/p&gt;&#xa;  &lt;/td&gt;&#xa; &lt;/tr&gt;&#xa; &lt;tr style=&quot;height: 30.0pt&quot;&gt;&#xa;  &lt;td width=&quot;127&quot; nowrap=&quot;&quot; valign=&quot;bottom&quot; style=&quot;width: 95.0pt ; border: solid 1.0pt ; border-top: none ; padding: 0in 5.4pt 0in 5.4pt ; height: 30.0pt&quot;&gt;&#xa;  &lt;p class=&quot;MsoNormal&quot;&gt;&lt;span lang=&quot;EN-GB&quot; style=&quot;color: black&quot;&gt;mortgage.cbd.ae&lt;/span&gt;&lt;/p&gt;&#xa;  &lt;/td&gt;&#xa;  &lt;td width=&quot;127&quot; nowrap=&quot;&quot; valign=&quot;bottom&quot; style=&quot;width: 95.0pt ; border-top: none ; border-left: none ; border-bottom: solid 1.0pt ; border-right: solid 1.0pt ; padding: 0in 5.4pt 0in 5.4pt ; height: 30.0pt&quot;&gt;&#xa;  &lt;p class=&quot;MsoNormal&quot;&gt;&lt;span lang=&quot;EN-GB&quot; style=&quot;color: black&quot;&gt;172.16.13.173&lt;/span&gt;&lt;/p&gt;&#xa;  &lt;/td&gt;&#xa;  &lt;td width=&quot;172&quot; nowrap=&quot;&quot; valign=&quot;bottom&quot; style=&quot;width: 129.0pt ; border-top: none ; border-left: none ; border-bottom: solid 1.0pt ; border-right: solid 1.0pt ; padding: 0in 5.4pt 0in 5.4pt ; height: 30.0pt&quot;&gt;&#xa;  &lt;p class=&quot;MsoNormal&quot;&gt;&lt;span lang=&quot;EN-GB&quot; style=&quot;color: black&quot;&gt;/digitalonboarding&lt;/span&gt;&lt;/p&gt;&#xa;  &lt;/td&gt;&#xa;  &lt;td width=&quot;175&quot; valign=&quot;bottom&quot; style=&quot;width: 131.0pt ; border-top: none ; border-left: none ; border-bottom: solid 1.0pt ; border-right: solid 1.0pt ; padding: 0in 5.4pt 0in 5.4pt ; height: 30.0pt&quot;&gt;&#xa;  &lt;p class=&quot;MsoNormal&quot;&gt;&lt;span lang=&quot;EN-GB&quot; style=&quot;color: black&quot;&gt;172.16.232.20:8070&lt;br&gt;&#xa;  172.16.232.21:8070&lt;/span&gt;&lt;/p&gt;&#xa;  &lt;/td&gt;&#xa; &lt;/tr&gt;&#xa; &lt;tr style=&quot;height: 30.0pt&quot;&gt;&#xa;  &lt;td width=&quot;127&quot; nowrap=&quot;&quot; valign=&quot;bottom&quot; style=&quot;width: 95.0pt ; border: solid 1.0pt ; border-top: none ; padding: 0in 5.4pt 0in 5.4pt ; height: 30.0pt&quot;&gt;&#xa;  &lt;p class=&quot;MsoNormal&quot;&gt;&lt;span lang=&quot;EN-GB&quot; style=&quot;color: black&quot;&gt;onetouch.cbd.ae&lt;/span&gt;&lt;/p&gt;&#xa;  &lt;/td&gt;&#xa;  &lt;td width=&quot;127&quot; nowrap=&quot;&quot; valign=&quot;bottom&quot; style=&quot;width: 95.0pt ; border-top: none ; border-left: none ; border-bottom: solid 1.0pt ; border-right: solid 1.0pt ; padding: 0in 5.4pt 0in 5.4pt ; height: 30.0pt&quot;&gt;&#xa;  &lt;p class=&quot;MsoNormal&quot;&gt;&lt;span lang=&quot;EN-GB&quot; style=&quot;color: black&quot;&gt;94.56.92.121&lt;/span&gt;&lt;/p&gt;&#xa;  &lt;/td&gt;&#xa;  &lt;td width=&quot;172&quot; nowrap=&quot;&quot; valign=&quot;bottom&quot; style=&quot;width: 129.0pt ; border-top: none ; border-left: none ; border-bottom: solid 1.0pt ; border-right: solid 1.0pt ; padding: 0in 5.4pt 0in 5.4pt ; height: 30.0pt&quot;&gt;&#xa;  &lt;p class=&quot;MsoNormal&quot;&gt;&lt;span lang=&quot;EN-GB&quot; style=&quot;color: black&quot;&gt;/mortgagedigitalexp&lt;/span&gt;&lt;/p&gt;&#xa;  &lt;/td&gt;&#xa;  &lt;td width=&quot;175&quot; valign=&quot;bottom&quot; style=&quot;width: 131.0pt ; border-top: none ; border-left: none ; border-bottom: solid 1.0pt ; border-right: solid 1.0pt ; padding: 0in 5.4pt 0in 5.4pt ; height: 30.0pt&quot;&gt;&#xa;  &lt;p class=&quot;MsoNormal&quot;&gt;&lt;span lang=&quot;EN-GB&quot; style=&quot;color: black&quot;&gt;172.16.232.20:8280&lt;br&gt;&#xa;  172.16.232.21:8280&lt;/span&gt;&lt;/p&gt;&#xa;  &lt;/td&gt;&#xa; &lt;/tr&gt;&#xa;&lt;/tbody&gt;&lt;/table&gt;" style="text;whiteSpace=wrap;html=1;" parent="ExzQFQyrDmCpy_E2fdTn-1" vertex="1">
          <mxGeometry x="150" y="520" width="595" height="30" as="geometry" />
        </mxCell>
        <mxCell id="ExzQFQyrDmCpy_E2fdTn-11" value="&lt;b&gt;&lt;u&gt;&lt;font style=&quot;font-size: 18px&quot;&gt;Network Rules&lt;/font&gt;&lt;/u&gt;&lt;/b&gt;" style="text;html=1;align=center;verticalAlign=middle;resizable=0;points=[];autosize=1;strokeColor=none;" parent="ExzQFQyrDmCpy_E2fdTn-1" vertex="1">
          <mxGeometry x="367.5" y="760" width="140" height="20" as="geometry" />
        </mxCell>
        <mxCell id="ExzQFQyrDmCpy_E2fdTn-16" value="Apache Tomcat server" style="text;html=1;align=center;verticalAlign=middle;resizable=0;points=[];autosize=1;strokeColor=none;" parent="ExzQFQyrDmCpy_E2fdTn-1" vertex="1">
          <mxGeometry x="660" y="230" width="130" height="20" as="geometry" />
        </mxCell>
        <mxCell id="ExzQFQyrDmCpy_E2fdTn-20" style="edgeStyle=orthogonalEdgeStyle;rounded=0;orthogonalLoop=1;jettySize=auto;html=1;entryX=0.333;entryY=0.033;entryDx=0;entryDy=0;entryPerimeter=0;" parent="ExzQFQyrDmCpy_E2fdTn-1" source="ExzQFQyrDmCpy_E2fdTn-17" target="ExzQFQyrDmCpy_E2fdTn-6" edge="1">
          <mxGeometry relative="1" as="geometry" />
        </mxCell>
        <mxCell id="ExzQFQyrDmCpy_E2fdTn-21" style="edgeStyle=orthogonalEdgeStyle;rounded=0;orthogonalLoop=1;jettySize=auto;html=1;entryX=0.5;entryY=0;entryDx=0;entryDy=0;" parent="ExzQFQyrDmCpy_E2fdTn-1" source="ExzQFQyrDmCpy_E2fdTn-17" target="ExzQFQyrDmCpy_E2fdTn-5" edge="1">
          <mxGeometry relative="1" as="geometry" />
        </mxCell>
        <mxCell id="ExzQFQyrDmCpy_E2fdTn-22" style="edgeStyle=orthogonalEdgeStyle;rounded=0;orthogonalLoop=1;jettySize=auto;html=1;entryX=0.596;entryY=0.033;entryDx=0;entryDy=0;entryPerimeter=0;" parent="ExzQFQyrDmCpy_E2fdTn-1" source="ExzQFQyrDmCpy_E2fdTn-17" target="ExzQFQyrDmCpy_E2fdTn-7" edge="1">
          <mxGeometry relative="1" as="geometry" />
        </mxCell>
        <mxCell id="ExzQFQyrDmCpy_E2fdTn-17" value="Citrix LB" style="rounded=1;whiteSpace=wrap;html=1;" parent="ExzQFQyrDmCpy_E2fdTn-1" vertex="1">
          <mxGeometry x="257.5" y="400" width="230" height="40" as="geometry" />
        </mxCell>
        <mxCell id="ExzQFQyrDmCpy_E2fdTn-23" value="Website Traffic to Node3" style="text;html=1;align=center;verticalAlign=middle;resizable=0;points=[];autosize=1;strokeColor=none;" parent="ExzQFQyrDmCpy_E2fdTn-1" vertex="1">
          <mxGeometry x="620" y="460" width="150" height="20" as="geometry" />
        </mxCell>
        <mxCell id="ExzQFQyrDmCpy_E2fdTn-24" value="Mobile App Traffic to Node1 and Node2" style="text;html=1;align=center;verticalAlign=middle;resizable=0;points=[];autosize=1;strokeColor=none;" parent="ExzQFQyrDmCpy_E2fdTn-1" vertex="1">
          <mxGeometry x="82.5" y="450" width="220" height="20" as="geometry" />
        </mxCell>
        <mxCell id="ExzQFQyrDmCpy_E2fdTn-26" value="&lt;b&gt;SprintBoot Deployment for Digital Experience Layer&lt;/b&gt;" style="text;html=1;align=center;verticalAlign=middle;resizable=0;points=[];autosize=1;strokeColor=none;" parent="ExzQFQyrDmCpy_E2fdTn-1" vertex="1">
          <mxGeometry x="530" y="590" width="310" height="20" as="geometry" />
        </mxCell>
        <mxCell id="ExzQFQyrDmCpy_E2fdTn-27" value="&lt;b&gt;Jboss server deployment for MObile Digital services&lt;/b&gt;" style="text;html=1;align=center;verticalAlign=middle;resizable=0;points=[];autosize=1;strokeColor=none;" parent="ExzQFQyrDmCpy_E2fdTn-1" vertex="1">
          <mxGeometry x="90" y="610" width="310" height="20" as="geometry" />
        </mxCell>
        <mxCell id="ExzQFQyrDmCpy_E2fdTn-28" value="&lt;b&gt;&lt;u&gt;&lt;font style=&quot;font-size: 24px&quot;&gt;Deployment Structure&lt;/font&gt;&lt;/u&gt;&lt;/b&gt;" style="text;html=1;align=center;verticalAlign=middle;resizable=0;points=[];autosize=1;strokeColor=none;" parent="ExzQFQyrDmCpy_E2fdTn-1" vertex="1">
          <mxGeometry x="230" y="160" width="270" height="20" as="geometry" />
        </mxCell>
        <mxCell id="ExzQFQyrDmCpy_E2fdTn-30" value="Website" style="text;html=1;align=center;verticalAlign=middle;resizable=0;points=[];autosize=1;strokeColor=none;" parent="ExzQFQyrDmCpy_E2fdTn-1" vertex="1">
          <mxGeometry x="600" y="160" width="60" height="20" as="geometry" />
        </mxCell>
      </root>
    </mxGraphModel>
  </diagram>
  <diagram name="Copy of Page-3" id="g-Mu7HHczt-cV4cKB3Ej">
    <mxGraphModel dx="1342" dy="614" grid="1" gridSize="10" guides="1" tooltips="1" connect="1" arrows="1" fold="1" page="1" pageScale="1" pageWidth="850" pageHeight="1100" math="0" shadow="0">
      <root>
        <mxCell id="hbmbPCJzqCkNv4aHdIMT-0" />
        <mxCell id="hbmbPCJzqCkNv4aHdIMT-1" parent="hbmbPCJzqCkNv4aHdIMT-0" />
        <mxCell id="hbmbPCJzqCkNv4aHdIMT-2" style="edgeStyle=orthogonalEdgeStyle;rounded=0;orthogonalLoop=1;jettySize=auto;html=1;entryX=0.5;entryY=0;entryDx=0;entryDy=0;" parent="hbmbPCJzqCkNv4aHdIMT-1" source="hbmbPCJzqCkNv4aHdIMT-3" target="hbmbPCJzqCkNv4aHdIMT-19" edge="1">
          <mxGeometry relative="1" as="geometry" />
        </mxCell>
        <mxCell id="hbmbPCJzqCkNv4aHdIMT-3" value="WSO2 API Gateway" style="rounded=1;whiteSpace=wrap;html=1;" parent="hbmbPCJzqCkNv4aHdIMT-1" vertex="1">
          <mxGeometry x="157.5" y="310" width="430" height="30" as="geometry" />
        </mxCell>
        <mxCell id="hbmbPCJzqCkNv4aHdIMT-4" style="edgeStyle=orthogonalEdgeStyle;rounded=0;orthogonalLoop=1;jettySize=auto;html=1;" parent="hbmbPCJzqCkNv4aHdIMT-1" source="hbmbPCJzqCkNv4aHdIMT-5" target="hbmbPCJzqCkNv4aHdIMT-3" edge="1">
          <mxGeometry relative="1" as="geometry" />
        </mxCell>
        <mxCell id="hbmbPCJzqCkNv4aHdIMT-5" value="Mobile client" style="outlineConnect=0;fontColor=#232F3E;gradientColor=none;strokeColor=#232F3E;fillColor=#ffffff;dashed=0;verticalLabelPosition=bottom;verticalAlign=top;align=center;html=1;fontSize=12;fontStyle=0;aspect=fixed;shape=mxgraph.aws4.resourceIcon;resIcon=mxgraph.aws4.mobile_client;" parent="hbmbPCJzqCkNv4aHdIMT-1" vertex="1">
          <mxGeometry x="120" y="180" width="60" height="60" as="geometry" />
        </mxCell>
        <mxCell id="hbmbPCJzqCkNv4aHdIMT-6" style="edgeStyle=orthogonalEdgeStyle;rounded=0;orthogonalLoop=1;jettySize=auto;html=1;exitX=0.5;exitY=1;exitDx=0;exitDy=0;exitPerimeter=0;entryX=0.5;entryY=0;entryDx=0;entryDy=0;" parent="hbmbPCJzqCkNv4aHdIMT-1" source="hbmbPCJzqCkNv4aHdIMT-7" target="hbmbPCJzqCkNv4aHdIMT-12" edge="1">
          <mxGeometry relative="1" as="geometry" />
        </mxCell>
        <mxCell id="hbmbPCJzqCkNv4aHdIMT-7" value="" style="verticalLabelPosition=bottom;html=1;verticalAlign=top;align=center;strokeColor=none;fillColor=#00BEF2;shape=mxgraph.azure.azure_website;pointerEvents=1;" parent="hbmbPCJzqCkNv4aHdIMT-1" vertex="1">
          <mxGeometry x="535" y="140" width="50" height="50" as="geometry" />
        </mxCell>
        <mxCell id="hbmbPCJzqCkNv4aHdIMT-29" style="edgeStyle=orthogonalEdgeStyle;rounded=0;orthogonalLoop=1;jettySize=auto;html=1;" parent="hbmbPCJzqCkNv4aHdIMT-1" source="hbmbPCJzqCkNv4aHdIMT-8" target="hbmbPCJzqCkNv4aHdIMT-26" edge="1">
          <mxGeometry relative="1" as="geometry" />
        </mxCell>
        <mxCell id="hbmbPCJzqCkNv4aHdIMT-42" style="edgeStyle=orthogonalEdgeStyle;rounded=0;orthogonalLoop=1;jettySize=auto;html=1;" parent="hbmbPCJzqCkNv4aHdIMT-1" source="hbmbPCJzqCkNv4aHdIMT-8" target="hbmbPCJzqCkNv4aHdIMT-36" edge="1">
          <mxGeometry relative="1" as="geometry">
            <Array as="points">
              <mxPoint x="143" y="660" />
            </Array>
          </mxGeometry>
        </mxCell>
        <mxCell id="hbmbPCJzqCkNv4aHdIMT-8" value="&lt;span style=&quot;font-weight: bold&quot;&gt;COBJBA-01&lt;/span&gt;" style="rounded=1;whiteSpace=wrap;html=1;" parent="hbmbPCJzqCkNv4aHdIMT-1" vertex="1">
          <mxGeometry x="82.5" y="520" width="120" height="60" as="geometry" />
        </mxCell>
        <mxCell id="hbmbPCJzqCkNv4aHdIMT-31" style="edgeStyle=orthogonalEdgeStyle;rounded=0;orthogonalLoop=1;jettySize=auto;html=1;entryX=0.5;entryY=0;entryDx=0;entryDy=0;" parent="hbmbPCJzqCkNv4aHdIMT-1" source="hbmbPCJzqCkNv4aHdIMT-9" target="hbmbPCJzqCkNv4aHdIMT-26" edge="1">
          <mxGeometry relative="1" as="geometry" />
        </mxCell>
        <mxCell id="hbmbPCJzqCkNv4aHdIMT-43" style="edgeStyle=orthogonalEdgeStyle;rounded=0;orthogonalLoop=1;jettySize=auto;html=1;" parent="hbmbPCJzqCkNv4aHdIMT-1" source="hbmbPCJzqCkNv4aHdIMT-9" target="hbmbPCJzqCkNv4aHdIMT-36" edge="1">
          <mxGeometry relative="1" as="geometry">
            <Array as="points">
              <mxPoint x="360" y="660" />
            </Array>
          </mxGeometry>
        </mxCell>
        <mxCell id="hbmbPCJzqCkNv4aHdIMT-9" value="&lt;span style=&quot;font-weight: 700&quot;&gt;COBJBA-02&lt;/span&gt;" style="rounded=1;whiteSpace=wrap;html=1;" parent="hbmbPCJzqCkNv4aHdIMT-1" vertex="1">
          <mxGeometry x="300" y="520" width="120" height="60" as="geometry" />
        </mxCell>
        <mxCell id="hbmbPCJzqCkNv4aHdIMT-28" style="edgeStyle=orthogonalEdgeStyle;rounded=0;orthogonalLoop=1;jettySize=auto;html=1;entryX=0.5;entryY=0;entryDx=0;entryDy=0;" parent="hbmbPCJzqCkNv4aHdIMT-1" source="hbmbPCJzqCkNv4aHdIMT-10" target="hbmbPCJzqCkNv4aHdIMT-26" edge="1">
          <mxGeometry relative="1" as="geometry" />
        </mxCell>
        <mxCell id="hbmbPCJzqCkNv4aHdIMT-44" style="edgeStyle=orthogonalEdgeStyle;rounded=0;orthogonalLoop=1;jettySize=auto;html=1;" parent="hbmbPCJzqCkNv4aHdIMT-1" source="hbmbPCJzqCkNv4aHdIMT-10" target="hbmbPCJzqCkNv4aHdIMT-36" edge="1">
          <mxGeometry relative="1" as="geometry" />
        </mxCell>
        <mxCell id="hbmbPCJzqCkNv4aHdIMT-10" value="&lt;span style=&quot;font-weight: 700&quot;&gt;COBJBA-03&lt;/span&gt;" style="rounded=1;whiteSpace=wrap;html=1;" parent="hbmbPCJzqCkNv4aHdIMT-1" vertex="1">
          <mxGeometry x="540" y="520" width="120" height="60" as="geometry" />
        </mxCell>
        <mxCell id="hbmbPCJzqCkNv4aHdIMT-11" style="edgeStyle=orthogonalEdgeStyle;rounded=0;orthogonalLoop=1;jettySize=auto;html=1;entryX=0.541;entryY=0.11;entryDx=0;entryDy=0;entryPerimeter=0;" parent="hbmbPCJzqCkNv4aHdIMT-1" source="hbmbPCJzqCkNv4aHdIMT-12" target="hbmbPCJzqCkNv4aHdIMT-3" edge="1">
          <mxGeometry relative="1" as="geometry" />
        </mxCell>
        <mxCell id="hbmbPCJzqCkNv4aHdIMT-12" value="&lt;span style=&quot;font-weight: 700&quot;&gt;172.16.232.20/21&lt;/span&gt;" style="rounded=1;whiteSpace=wrap;html=1;" parent="hbmbPCJzqCkNv4aHdIMT-1" vertex="1">
          <mxGeometry x="500" y="220" width="120" height="40" as="geometry" />
        </mxCell>
        <mxCell id="hbmbPCJzqCkNv4aHdIMT-15" value="Apache Tomcat server" style="text;html=1;align=center;verticalAlign=middle;resizable=0;points=[];autosize=1;strokeColor=none;" parent="hbmbPCJzqCkNv4aHdIMT-1" vertex="1">
          <mxGeometry x="660" y="230" width="130" height="20" as="geometry" />
        </mxCell>
        <mxCell id="hbmbPCJzqCkNv4aHdIMT-16" style="edgeStyle=orthogonalEdgeStyle;rounded=0;orthogonalLoop=1;jettySize=auto;html=1;entryX=0.333;entryY=0.033;entryDx=0;entryDy=0;entryPerimeter=0;" parent="hbmbPCJzqCkNv4aHdIMT-1" source="hbmbPCJzqCkNv4aHdIMT-19" target="hbmbPCJzqCkNv4aHdIMT-9" edge="1">
          <mxGeometry relative="1" as="geometry" />
        </mxCell>
        <mxCell id="hbmbPCJzqCkNv4aHdIMT-17" style="edgeStyle=orthogonalEdgeStyle;rounded=0;orthogonalLoop=1;jettySize=auto;html=1;entryX=0.5;entryY=0;entryDx=0;entryDy=0;" parent="hbmbPCJzqCkNv4aHdIMT-1" source="hbmbPCJzqCkNv4aHdIMT-19" target="hbmbPCJzqCkNv4aHdIMT-8" edge="1">
          <mxGeometry relative="1" as="geometry" />
        </mxCell>
        <mxCell id="hbmbPCJzqCkNv4aHdIMT-18" style="edgeStyle=orthogonalEdgeStyle;rounded=0;orthogonalLoop=1;jettySize=auto;html=1;entryX=0.596;entryY=0.033;entryDx=0;entryDy=0;entryPerimeter=0;" parent="hbmbPCJzqCkNv4aHdIMT-1" source="hbmbPCJzqCkNv4aHdIMT-19" target="hbmbPCJzqCkNv4aHdIMT-10" edge="1">
          <mxGeometry relative="1" as="geometry" />
        </mxCell>
        <mxCell id="hbmbPCJzqCkNv4aHdIMT-19" value="Citrix LB" style="rounded=1;whiteSpace=wrap;html=1;" parent="hbmbPCJzqCkNv4aHdIMT-1" vertex="1">
          <mxGeometry x="257.5" y="400" width="230" height="40" as="geometry" />
        </mxCell>
        <mxCell id="hbmbPCJzqCkNv4aHdIMT-20" value="Website Traffic to Node3" style="text;html=1;align=center;verticalAlign=middle;resizable=0;points=[];autosize=1;strokeColor=none;" parent="hbmbPCJzqCkNv4aHdIMT-1" vertex="1">
          <mxGeometry x="620" y="460" width="150" height="20" as="geometry" />
        </mxCell>
        <mxCell id="hbmbPCJzqCkNv4aHdIMT-21" value="Mobile App Traffic to Node1 and Node2" style="text;html=1;align=center;verticalAlign=middle;resizable=0;points=[];autosize=1;strokeColor=none;" parent="hbmbPCJzqCkNv4aHdIMT-1" vertex="1">
          <mxGeometry x="82.5" y="450" width="220" height="20" as="geometry" />
        </mxCell>
        <mxCell id="hbmbPCJzqCkNv4aHdIMT-22" value="&lt;b&gt;SprintBoot Deployment for Digital Experience Layer&lt;/b&gt;" style="text;html=1;align=center;verticalAlign=middle;resizable=0;points=[];autosize=1;strokeColor=none;" parent="hbmbPCJzqCkNv4aHdIMT-1" vertex="1">
          <mxGeometry x="530" y="580" width="310" height="20" as="geometry" />
        </mxCell>
        <mxCell id="hbmbPCJzqCkNv4aHdIMT-23" value="&lt;b&gt;Jboss server deployment for MObile Digital services&lt;/b&gt;" style="text;html=1;align=center;verticalAlign=middle;resizable=0;points=[];autosize=1;strokeColor=none;" parent="hbmbPCJzqCkNv4aHdIMT-1" vertex="1">
          <mxGeometry x="110" y="580" width="310" height="20" as="geometry" />
        </mxCell>
        <mxCell id="hbmbPCJzqCkNv4aHdIMT-24" value="&lt;b&gt;&lt;u&gt;&lt;font style=&quot;font-size: 24px&quot;&gt;Deployment Structure&lt;/font&gt;&lt;/u&gt;&lt;/b&gt;" style="text;html=1;align=center;verticalAlign=middle;resizable=0;points=[];autosize=1;strokeColor=none;" parent="hbmbPCJzqCkNv4aHdIMT-1" vertex="1">
          <mxGeometry x="230" y="160" width="270" height="20" as="geometry" />
        </mxCell>
        <mxCell id="hbmbPCJzqCkNv4aHdIMT-25" value="Website" style="text;html=1;align=center;verticalAlign=middle;resizable=0;points=[];autosize=1;strokeColor=none;" parent="hbmbPCJzqCkNv4aHdIMT-1" vertex="1">
          <mxGeometry x="600" y="160" width="60" height="20" as="geometry" />
        </mxCell>
        <mxCell id="hbmbPCJzqCkNv4aHdIMT-33" style="edgeStyle=orthogonalEdgeStyle;rounded=0;orthogonalLoop=1;jettySize=auto;html=1;entryX=0.442;entryY=-0.05;entryDx=0;entryDy=0;entryPerimeter=0;" parent="hbmbPCJzqCkNv4aHdIMT-1" source="hbmbPCJzqCkNv4aHdIMT-26" target="hbmbPCJzqCkNv4aHdIMT-27" edge="1">
          <mxGeometry relative="1" as="geometry" />
        </mxCell>
        <mxCell id="hbmbPCJzqCkNv4aHdIMT-26" value="MWNLB&amp;nbsp;" style="rounded=1;whiteSpace=wrap;html=1;" parent="hbmbPCJzqCkNv4aHdIMT-1" vertex="1">
          <mxGeometry x="157.5" y="710" width="430" height="30" as="geometry" />
        </mxCell>
        <mxCell id="hbmbPCJzqCkNv4aHdIMT-51" style="edgeStyle=orthogonalEdgeStyle;rounded=0;orthogonalLoop=1;jettySize=auto;html=1;entryX=0.5;entryY=0;entryDx=0;entryDy=0;" parent="hbmbPCJzqCkNv4aHdIMT-1" source="hbmbPCJzqCkNv4aHdIMT-27" target="hbmbPCJzqCkNv4aHdIMT-49" edge="1">
          <mxGeometry relative="1" as="geometry" />
        </mxCell>
        <mxCell id="hbmbPCJzqCkNv4aHdIMT-27" value="&lt;b&gt;MW Components&lt;/b&gt;" style="rounded=1;whiteSpace=wrap;html=1;" parent="hbmbPCJzqCkNv4aHdIMT-1" vertex="1">
          <mxGeometry x="320" y="810" width="120" height="60" as="geometry" />
        </mxCell>
        <mxCell id="hbmbPCJzqCkNv4aHdIMT-34" value="&lt;span style=&quot;font-weight: bold&quot;&gt;EDMS&amp;nbsp;&lt;/span&gt;&lt;b&gt;Repository&lt;/b&gt;" style="rounded=1;whiteSpace=wrap;html=1;" parent="hbmbPCJzqCkNv4aHdIMT-1" vertex="1">
          <mxGeometry x="1130" y="630" width="120" height="60" as="geometry" />
        </mxCell>
        <mxCell id="hbmbPCJzqCkNv4aHdIMT-47" style="edgeStyle=orthogonalEdgeStyle;rounded=0;orthogonalLoop=1;jettySize=auto;html=1;" parent="hbmbPCJzqCkNv4aHdIMT-1" source="hbmbPCJzqCkNv4aHdIMT-36" target="hbmbPCJzqCkNv4aHdIMT-45" edge="1">
          <mxGeometry relative="1" as="geometry" />
        </mxCell>
        <mxCell id="hbmbPCJzqCkNv4aHdIMT-36" value="MBEA" style="rounded=1;whiteSpace=wrap;html=1;rotation=-90;" parent="hbmbPCJzqCkNv4aHdIMT-1" vertex="1">
          <mxGeometry x="750" y="640" width="245" height="40" as="geometry" />
        </mxCell>
        <mxCell id="hbmbPCJzqCkNv4aHdIMT-46" style="edgeStyle=orthogonalEdgeStyle;rounded=0;orthogonalLoop=1;jettySize=auto;html=1;" parent="hbmbPCJzqCkNv4aHdIMT-1" source="hbmbPCJzqCkNv4aHdIMT-45" target="hbmbPCJzqCkNv4aHdIMT-34" edge="1">
          <mxGeometry relative="1" as="geometry" />
        </mxCell>
        <mxCell id="hbmbPCJzqCkNv4aHdIMT-45" value="&lt;span style=&quot;font-weight: 700&quot;&gt;TemplateServices&lt;/span&gt;" style="rounded=1;whiteSpace=wrap;html=1;" parent="hbmbPCJzqCkNv4aHdIMT-1" vertex="1">
          <mxGeometry x="930" y="630" width="120" height="60" as="geometry" />
        </mxCell>
        <mxCell id="hbmbPCJzqCkNv4aHdIMT-49" value="&lt;b&gt;Open-Text (BPM Services)&lt;/b&gt;" style="rounded=1;whiteSpace=wrap;html=1;" parent="hbmbPCJzqCkNv4aHdIMT-1" vertex="1">
          <mxGeometry x="320" y="930" width="120" height="60" as="geometry" />
        </mxCell>
      </root>
    </mxGraphModel>
  </diagram>
  <diagram id="fXMNN6k-zh1GrDk9IZYX" name="Page-5">
    <mxGraphModel dx="1342" dy="614" grid="1" gridSize="10" guides="1" tooltips="1" connect="1" arrows="1" fold="1" page="1" pageScale="1" pageWidth="850" pageHeight="1100" math="0" shadow="0">
      <root>
        <mxCell id="NKAtknXnc5O5xyI13N0S-0" />
        <mxCell id="NKAtknXnc5O5xyI13N0S-1" parent="NKAtknXnc5O5xyI13N0S-0" />
        <mxCell id="NKAtknXnc5O5xyI13N0S-29" style="edgeStyle=orthogonalEdgeStyle;rounded=0;orthogonalLoop=1;jettySize=auto;html=1;entryX=0.552;entryY=-0.175;entryDx=0;entryDy=0;entryPerimeter=0;" edge="1" parent="NKAtknXnc5O5xyI13N0S-1" source="NKAtknXnc5O5xyI13N0S-3" target="NKAtknXnc5O5xyI13N0S-10">
          <mxGeometry relative="1" as="geometry">
            <mxPoint x="378.75" y="370" as="targetPoint" />
          </mxGeometry>
        </mxCell>
        <mxCell id="NKAtknXnc5O5xyI13N0S-3" value="WSO2 API Gateway" style="rounded=1;whiteSpace=wrap;html=1;" vertex="1" parent="NKAtknXnc5O5xyI13N0S-1">
          <mxGeometry x="157.5" y="310" width="442.5" height="30" as="geometry" />
        </mxCell>
        <mxCell id="NKAtknXnc5O5xyI13N0S-6" style="edgeStyle=orthogonalEdgeStyle;rounded=0;orthogonalLoop=1;jettySize=auto;html=1;exitX=0.5;exitY=1;exitDx=0;exitDy=0;exitPerimeter=0;entryX=0.5;entryY=0;entryDx=0;entryDy=0;" edge="1" parent="NKAtknXnc5O5xyI13N0S-1" source="NKAtknXnc5O5xyI13N0S-7" target="NKAtknXnc5O5xyI13N0S-12">
          <mxGeometry relative="1" as="geometry" />
        </mxCell>
        <mxCell id="NKAtknXnc5O5xyI13N0S-7" value="" style="verticalLabelPosition=bottom;html=1;verticalAlign=top;align=center;strokeColor=none;fillColor=#00BEF2;shape=mxgraph.azure.azure_website;pointerEvents=1;" vertex="1" parent="NKAtknXnc5O5xyI13N0S-1">
          <mxGeometry x="350" y="120" width="50" height="50" as="geometry" />
        </mxCell>
        <mxCell id="NKAtknXnc5O5xyI13N0S-8" value="&lt;span style=&quot;font-weight: bold&quot;&gt;COBJBA-01&lt;/span&gt;" style="rounded=1;whiteSpace=wrap;html=1;" vertex="1" parent="NKAtknXnc5O5xyI13N0S-1">
          <mxGeometry x="157.5" y="600" width="120" height="40" as="geometry" />
        </mxCell>
        <mxCell id="NKAtknXnc5O5xyI13N0S-9" value="&lt;span style=&quot;font-weight: 700&quot;&gt;COBJBA-02&lt;/span&gt;" style="rounded=1;whiteSpace=wrap;html=1;" vertex="1" parent="NKAtknXnc5O5xyI13N0S-1">
          <mxGeometry x="480" y="600" width="120" height="40" as="geometry" />
        </mxCell>
        <mxCell id="NKAtknXnc5O5xyI13N0S-38" style="edgeStyle=orthogonalEdgeStyle;rounded=0;orthogonalLoop=1;jettySize=auto;html=1;entryX=0.46;entryY=-0.025;entryDx=0;entryDy=0;entryPerimeter=0;" edge="1" parent="NKAtknXnc5O5xyI13N0S-1" source="NKAtknXnc5O5xyI13N0S-10" target="NKAtknXnc5O5xyI13N0S-19">
          <mxGeometry relative="1" as="geometry" />
        </mxCell>
        <mxCell id="NKAtknXnc5O5xyI13N0S-10" value="&lt;span style=&quot;font-weight: 700&quot;&gt;COBJBA-03&lt;/span&gt;" style="rounded=1;whiteSpace=wrap;html=1;" vertex="1" parent="NKAtknXnc5O5xyI13N0S-1">
          <mxGeometry x="310" y="400" width="125" height="40" as="geometry" />
        </mxCell>
        <mxCell id="NKAtknXnc5O5xyI13N0S-28" style="edgeStyle=orthogonalEdgeStyle;rounded=0;orthogonalLoop=1;jettySize=auto;html=1;" edge="1" parent="NKAtknXnc5O5xyI13N0S-1" source="NKAtknXnc5O5xyI13N0S-12">
          <mxGeometry relative="1" as="geometry">
            <mxPoint x="375" y="304" as="targetPoint" />
          </mxGeometry>
        </mxCell>
        <mxCell id="NKAtknXnc5O5xyI13N0S-35" style="edgeStyle=orthogonalEdgeStyle;rounded=0;orthogonalLoop=1;jettySize=auto;html=1;entryX=0.5;entryY=0;entryDx=0;entryDy=0;" edge="1" parent="NKAtknXnc5O5xyI13N0S-1" source="NKAtknXnc5O5xyI13N0S-12" target="NKAtknXnc5O5xyI13N0S-34">
          <mxGeometry relative="1" as="geometry" />
        </mxCell>
        <mxCell id="NKAtknXnc5O5xyI13N0S-12" value="WAF" style="rounded=1;whiteSpace=wrap;html=1;" vertex="1" parent="NKAtknXnc5O5xyI13N0S-1">
          <mxGeometry x="315" y="230" width="120" height="40" as="geometry" />
        </mxCell>
        <mxCell id="NKAtknXnc5O5xyI13N0S-15" value="&lt;b&gt;Apache Tomcat server&lt;/b&gt;" style="text;html=1;align=center;verticalAlign=middle;resizable=0;points=[];autosize=1;strokeColor=none;" vertex="1" parent="NKAtknXnc5O5xyI13N0S-1">
          <mxGeometry x="595" y="280" width="140" height="20" as="geometry" />
        </mxCell>
        <mxCell id="NKAtknXnc5O5xyI13N0S-40" style="edgeStyle=orthogonalEdgeStyle;rounded=0;orthogonalLoop=1;jettySize=auto;html=1;" edge="1" parent="NKAtknXnc5O5xyI13N0S-1" source="NKAtknXnc5O5xyI13N0S-19" target="NKAtknXnc5O5xyI13N0S-9">
          <mxGeometry relative="1" as="geometry" />
        </mxCell>
        <mxCell id="NKAtknXnc5O5xyI13N0S-41" style="edgeStyle=orthogonalEdgeStyle;rounded=0;orthogonalLoop=1;jettySize=auto;html=1;entryX=0.5;entryY=0;entryDx=0;entryDy=0;" edge="1" parent="NKAtknXnc5O5xyI13N0S-1" source="NKAtknXnc5O5xyI13N0S-19" target="NKAtknXnc5O5xyI13N0S-8">
          <mxGeometry relative="1" as="geometry">
            <Array as="points">
              <mxPoint x="380" y="560" />
              <mxPoint x="218" y="560" />
            </Array>
          </mxGeometry>
        </mxCell>
        <mxCell id="NKAtknXnc5O5xyI13N0S-19" value="Citrix LB" style="rounded=1;whiteSpace=wrap;html=1;" vertex="1" parent="NKAtknXnc5O5xyI13N0S-1">
          <mxGeometry x="280" y="480" width="200" height="40" as="geometry" />
        </mxCell>
        <mxCell id="NKAtknXnc5O5xyI13N0S-22" value="&lt;b&gt;Digital Experience Layer -&amp;nbsp;&lt;/b&gt;&lt;b&gt;SpringBoot Deployment&lt;/b&gt;" style="text;html=1;align=center;verticalAlign=middle;resizable=0;points=[];autosize=1;strokeColor=none;" vertex="1" parent="NKAtknXnc5O5xyI13N0S-1">
          <mxGeometry x="430" y="410" width="300" height="20" as="geometry" />
        </mxCell>
        <mxCell id="NKAtknXnc5O5xyI13N0S-23" value="&lt;b&gt;DFC Services&lt;/b&gt;" style="text;html=1;align=center;verticalAlign=middle;resizable=0;points=[];autosize=1;strokeColor=none;" vertex="1" parent="NKAtknXnc5O5xyI13N0S-1">
          <mxGeometry x="330" y="610" width="90" height="20" as="geometry" />
        </mxCell>
        <mxCell id="NKAtknXnc5O5xyI13N0S-24" value="&lt;b&gt;&lt;u&gt;&lt;font style=&quot;font-size: 24px&quot;&gt;Deployment Structure&lt;/font&gt;&lt;/u&gt;&lt;/b&gt;" style="text;html=1;align=center;verticalAlign=middle;resizable=0;points=[];autosize=1;strokeColor=none;" vertex="1" parent="NKAtknXnc5O5xyI13N0S-1">
          <mxGeometry x="237.5" y="80" width="270" height="20" as="geometry" />
        </mxCell>
        <mxCell id="NKAtknXnc5O5xyI13N0S-25" value="Website" style="text;html=1;align=center;verticalAlign=middle;resizable=0;points=[];autosize=1;strokeColor=none;" vertex="1" parent="NKAtknXnc5O5xyI13N0S-1">
          <mxGeometry x="395" y="135" width="60" height="20" as="geometry" />
        </mxCell>
        <mxCell id="NKAtknXnc5O5xyI13N0S-26" value="" style="shape=image;verticalLabelPosition=bottom;labelBackgroundColor=#ffffff;verticalAlign=top;aspect=fixed;imageAspect=0;image=data:image/png,iVBORw0KGgoAAAANSUhEUgAAAOEAAADhCAMAAAAJbSJIAAAAllBMVEXiHTj////hACriGjbhACbgACLhACjhACXiFzThETHhBSzgACHgAB3ukZrhDzDhCi7gABryo6z++fr63+L51dn86OrthZD0tbv75Ob2x8vjJj/oVmfwnabpZ3XlPVHujJbyqLDreYXqb3v+8vTkMknnTF71u8HrdYH40tf3x8zoWWnzr7btgIzvl5/lQ1bpYnLfAADjMEXcAaeGAAALpUlEQVR4nO2d15qqOhSAMSEEEAERLCg2xDaW4/u/3AFBpCQUR8HZX/7Lre7JIsnqCRzHYDAYDAaDwWAwGAwGg8FgMBgMBoPBYDAYDAaDwWAwGAwGg8H4OqAoaYDHCHW7CCEsAE0VYduDehdQAljhPGc4G032e9M095PJaDZcX6CCZenPiykCbE9nW8vo5DGsw3lqYyC2PciXgRKve7MBSbiEmObM03mp7bG+giiA66hYuljKkQOEvzaTKp733UrihbjLC1bbHnQNNP1q1hAvxHR0re2BV0Tjh1Zt+QKsE/8XZJTA6jX57jKuhG9fq6IyHb8sX8DgqHy1zhE2h1/JF3C4CW2LQUUUhr+WL2DBf+k0Aru+AiWzt0HbwhCAaPUm+QJW3a9zWEUweqOAnc7o29xVlRu8VUBfqcKvshuCV80DrYPhfZFOxevisVrmYftzmOzH9Z7Dmm9bsAcFOsY69Jy5rCDMCxgjBUz3dUTcobZFC+kuyOMbL9ei7ofxSZUh6b06Ig67rUmVABEFtPoXQVAJKp8/1lmqiy+YRbwiDOzgIGpIq6Udg/3AKgokd63vRSGvZIwfDhVpelHpP7+8/a+rKLqubTxn2FtuzXFW3HXL7o3q5QTs2/xzcUqapuYnE63jleqEKRoYpBtlgUe8eLtch8vDM73jtWoXRS67qbYb/JQPYGex2M11pGU2JJhHMaSby5reZRWwws+dxTZYz4bdogMHQcaTsaaJ6A7ih97cD22UTqehc/jJiL7NREnmu7rtzBYtZuJQxhf9kZMrik/EisZ2msw0iVw0h9Oy0UNJbnGVglVaQAcl1xP6SX9qrvXHYo3n3tVbGXhVRDu9Qjdy6tO8DnKHQL7LqE+if1l+ketJQEjZNZNLLzh+m5PQfwpDGUCuG1sLr2qI1MpWTKcsBtl4DpAzUlbP1mMnyKrqlMGVXP6ldyNukgMfyxkBIayQ8j5XtObipbNpPiBWJomhurkBQLuChPOKw1bXnYPydglKkKbJoR5zuWpolzvYg6o+J/Ct57HprZjaZsv8fkovYjK9qi4n9i3ruGG1q52Sa5QQJYnzcgkru2NKYD5XzdY0cLI2cSIoOl85lC7SaGtpitJFQRYAyJoqiSLMCa4HX7cajaO0pKWwAGEuCAY/yyJ8MNrJsAbmZLJdzhar9dWb22pXQb68WiDt/f8K18OwyUnUk1M4I22ntCYiEmnSbjZ1YxjueLL9OZ+u3sbWMBa64ZawGnTxVCc5IuJ2kq5lAprhIi1Wuv70Hpa9yIV3mvPBcdJfGxAfrVqcYOwkFmnZF5/PBDclYFqLjIhqXN2VjTdyEnCNetylKcdGWCb/7ImoAEqn5jEhSnUBGwtFIEg5ZFeisyFTkqgxkWYsX80J3IYklFJ6huJcgnPJaKN+L0wKsqg4zbhufCp3YZA78ECfNsoQM3T0oFin66YorfNO9JR6t8hOf3qv5okWqVhuNpMYjZjEjLcyIefdhR/KICPicMu+Xaar2WjiVkr2T5vQpmCW+puUhSMUl4TNeOahKEoqEJACvd1sXyYm0X96NzidIz2T8wuS0yOyCH9N8DGhqAKk34bbooajQQNGP+VlGcaYFplKMhE9NPDUpISoYc3rU7uOmkiARy61tZ2dHM/GSk39Hbowhf4XFIHiLSnrtYFQP9qGCz2Ibuo/0FDCRVnqTBT0FbH3oYGNGPmRu9f8fPG/+8/zQW4ejXcIMh4+vxGVUBGQfbVioKzM723DZrXEmYpOubVKMb9vBEb1tMrZ6viHKrIjRVq+SB/I3axTZ3CfVjUPe1+a6lRBCl52DvGEVM2TBr1k68w01n60dZGiWOAGg1qmKNEOTKirZT/JMmHlKi7SEPmWto/rTwf6UQ7K5XUZ2nPvuN6QRSQWZjo1F+kdkU8lcj6ej4qMhTFwDeO+figBTZGENWsQECTTAB83F3zW36Qo1QIJa3teUEnkhbafDqDwJDPe+hL2alfKoPZ04z5uEFE2u1lfwhdcS2kea9T9p7ukchLW3oeDV2y2ECe2zE9L2M32clPStHQJ6y/SAP3xZM1PN/PlJKTYJ7qEryU941pW8xJSXPCczv3VIuWevTsflzC3D+tKWLV2n+VRcm1e01AKl9Q8TXWfNEMUtn1cwpw9pHhRtFxb5dp9jqjg9XF7mNMgFCeTJuFZeDn6uVeCKYWgN5LLZVNybbSMsGeLPOKB9sIhbnRfPh/3S7Xs4S3KX6TmvIOS9nY2PHK6gmVCdy0d+d7M+fHYIlcrWpIlzOSNSQwO5/WcR6DqdIZl5Y8XZ3IdCD/kfSGX1Z4i3MnsWPFMfmgvPh7jw2zfM03CGucqqp7J14wm8jSPXFuZhLn9WjaXI4cvO5OvuE3k2nJ1d0plpkYDQizkbI4KZVT8KHH7+XxptrhLibnLOxVIHC5F55wDn7iBnLd0zAyK/FAzpfDK7C+YutECCUtb339PtsNnQpHwSBGhlKVEE6I7aObwRaZ+SPGEa5avk7gXiu/q78Mm6odZv21Ajtcq9CbSoRzK6xrN1IAzNn9MVt9V+kvpzEgiBqb44/b+TroXw6VIWKFHuIAFYTX6j7aZXoxMAGWQJYS3X0nYcfIOtm+AGuqnSRsCg/xHq3SyF+HmvTM/XHmlavkKQrKPySBHM5Cr1eyUZ5l7cl3TaOq0ZSr2o7jCUKI2jQyqnefOBVWouWNSKUtAs8EyrWOk11Uq3RCSzRz7kenLWaza4OQsUGplPOUaiR2qqGezHSno0FyPcLrPm5LDRmQJr8H24quExxldA+3OtcGzlslefYoRziVWwxkM9QdtglOk1yToNXocMxnfUrqUiIWLU7TOpPLTGNlHh91Gz1tw/HMSKakhUsL0FHvpuDxRlZZQXrjN7cIAbRUPhFJ8IiTbZgn3J5sMIZBcpZBv+twTJ8TGYEWWMJ+KMm6JIZefqXGTrWHox2r6yPBzhOTTCJyWb9ZPxeeopE06FVqrxyaC+wzKIyO1IEuo5tMYKb+5wOkJSax+3wWcNH6G9Gm2KYULUgjMJy2cWnwyKmkb9H3n1pg78+RxlpsSdkMuP+p0dVQpPGqR6A/ojjrDVg7uR+fxKSnhqBiWwpKTk1gYfmyf6Z/usmO2c0tNdKcCVULC+NOWRaOv00F8GwrUfZVkt3R52/1eDPNGye/leho6ua5EnpY2HscJflHw1/KutVt4tOt0Qy02ECv5GScWk0U8xHVFObhyadTiZVGwQMWJc0IeI1t2ABfCTJ8ed6SIStA/O3i9MP4Gbjb9MxGc81FwNiMg6uu0jG5fjswPxPOgrm3AVm9QhAUSchAI893yYBmJyezn9JLKz3vBdwIGI0eKZgzyXOj1tHtPVICkYEC9JF9UBayAm3d8FNvyF0P5X5KxotmbjQ0UIcrOiDzoh8+l7bu+/CkYupPZzuMUJMgq4baAAChqcQr8rGevQYm+A+PfipriPWKv9u9re9y5Z7iT0dm53KCAeCCr2eM0iST/oHeRMVnK+zcBug3jrfkNd+5l7k10x+a231sdN6quK12E75dByBpIlTGsbc/jdf9RqI9rE7jwBREC0i/nRPrjOwT0Z5Fs1QxrELzoYTnrLYarfFnf3W/Pq6u34fxdqCtYs+fX1U/6AOK33H3p+yZ1DmTnHoRhuO6j8z/F99xf6hvuf/0OWl+jwn/8HuFABZYcba7J6PteePHe+7x3qE1flAawa10SXID5lXeyc4GrNXyLwhl+6736PsLt3343AhdEdMffKdXx9Lvfb+EjCb95R8lJ+AsvRtLQ6cX3zAz/xHtmAjTdqa9WzeufeVdQgIovy3rve5r/qfc9BYgCf91WfmeX9n0uTBUkXr/0zZL3rg3uPd7f6MFUw4/Y7SP93Xmzv/3uvAgoAV7hLon3H+6D9x86Hqfgymctvp/7OywFjMKXWGLhtYtRGAwGg8FgMBgMBoPBYDAYDAaDwWAwGAwGg8FgMBgMBoPBYDAYH+d/4kq9lcKpT0MAAAAASUVORK5CYII=;" vertex="1" parent="NKAtknXnc5O5xyI13N0S-1">
          <mxGeometry x="315" y="230" width="40" height="40" as="geometry" />
        </mxCell>
        <mxCell id="NKAtknXnc5O5xyI13N0S-34" value="&lt;span style=&quot;font-weight: 700&quot;&gt;172.16.232.20/21&lt;/span&gt;" style="whiteSpace=wrap;html=1;" vertex="1" parent="NKAtknXnc5O5xyI13N0S-1">
          <mxGeometry x="500" y="270" width="100" height="40" as="geometry" />
        </mxCell>
        <mxCell id="NKAtknXnc5O5xyI13N0S-36" value="&amp;lt;=API =&amp;gt;" style="text;html=1;align=center;verticalAlign=middle;resizable=0;points=[];autosize=1;strokeColor=none;" vertex="1" parent="NKAtknXnc5O5xyI13N0S-1">
          <mxGeometry x="375" y="280" width="70" height="20" as="geometry" />
        </mxCell>
        <mxCell id="NKAtknXnc5O5xyI13N0S-37" value="&amp;lt;=WebPage=&amp;gt;" style="text;html=1;align=center;verticalAlign=middle;resizable=0;points=[];autosize=1;strokeColor=none;" vertex="1" parent="NKAtknXnc5O5xyI13N0S-1">
          <mxGeometry x="430" y="230" width="100" height="20" as="geometry" />
        </mxCell>
      </root>
    </mxGraphModel>
  </diagram>
</mxfile>
